<?xml version="1.0" encoding="UTF-8"?>
<svg version="1.1" xmlns="http://www.w3.org/2000/svg" width="500" height="500">
<path d="M0 0 C4.17826874 3.46555765 7.94378304 7.3995021 11.7109375 11.30078125 C13.63756762 13.41670422 13.63756762 13.41670422 15.8125 14.375 C15.8125 15.035 15.8125 15.695 15.8125 16.375 C17.6563703 17.10937993 17.6563703 17.10937993 19.8125 17.375 C22.09235647 15.41782163 24.0422184 13.51156758 26.0625 11.3125 C27.22710061 10.10092009 28.39504669 8.89254657 29.56640625 7.6875 C30.12730957 7.10871094 30.68821289 6.52992188 31.26611328 5.93359375 C39.33186251 -2.19582575 49.5702445 -6.72849228 61.0625 -6.8125 C73.31346891 -6.63209751 82.96836662 -2.26813035 91.8125 6.375 C100.33095394 17.07015961 102.22437986 27.95725032 100.8125 41.375 C99.21089596 48.9305897 95.76860315 54.57772338 90.8125 60.375 C90.29171875 61.19742188 89.7709375 62.01984375 89.234375 62.8671875 C86.42447662 66.65700843 83.97579948 68.90843026 79.25195312 69.92724609 C72.48742848 70.77337651 65.46138148 71.09140848 58.8125 69.375 C55.22761086 66.50807899 53.83533265 63.81520374 52.8125 59.375 C50.12061013 61.75596654 48.77552092 64.17150355 47.25390625 67.41015625 C46.78533203 68.38404297 46.31675781 69.35792969 45.83398438 70.36132812 C44.86053045 72.41379122 43.89178311 74.46849313 42.92773438 76.52539062 C42.45787109 77.49798828 41.98800781 78.47058594 41.50390625 79.47265625 C41.08310791 80.36476807 40.66230957 81.25687988 40.22875977 82.17602539 C38.65623252 84.61763078 37.4930228 85.36002395 34.8125 86.375 C33.99889005 85.08403219 33.18664954 83.79220125 32.375 82.5 C31.92253906 81.78070313 31.47007813 81.06140625 31.00390625 80.3203125 C29.8125 78.375 29.8125 78.375 28.8125 76.375 C27.3275 75.88 27.3275 75.88 25.8125 75.375 C25.544375 76.261875 25.27625 77.14875 25 78.0625 C23.89539181 81.14377548 22.58400856 83.63721405 20.8125 86.375 C19.01464844 86.23657227 19.01464844 86.23657227 16.8125 85.375 C15.16503906 82.87475586 15.16503906 82.87475586 13.578125 79.58984375 C13.00449219 78.42001953 12.43085937 77.25019531 11.83984375 76.04492188 C11.24709059 74.80092665 10.65464662 73.55678406 10.0625 72.3125 C9.45571857 71.06382472 8.84766027 69.81576904 8.23828125 68.56835938 C6.75032414 65.50978087 5.2757876 62.44543774 3.8125 59.375 C3.1525 59.375 2.4925 59.375 1.8125 59.375 C1.46316406 60.01308594 1.11382812 60.65117187 0.75390625 61.30859375 C0.29886719 62.13488281 -0.15617187 62.96117187 -0.625 63.8125 C-1.07746094 64.63621094 -1.52992187 65.45992188 -1.99609375 66.30859375 C-3.1875 68.375 -3.1875 68.375 -4.1875 69.375 C-5.60320123 69.46151611 -7.023095 69.48204904 -8.44140625 69.47265625 C-9.29541016 69.46943359 -10.14941406 69.46621094 -11.02929688 69.46289062 C-11.92712891 69.45451172 -12.82496094 69.44613281 -13.75 69.4375 C-14.65169922 69.43298828 -15.55339844 69.42847656 -16.48242188 69.42382812 C-18.71751314 69.41200225 -20.95247437 69.3955222 -23.1875 69.375 C-24.25 67.5 -24.25 67.5 -25.1875 65.375 C-24.8575 64.715 -24.5275 64.055 -24.1875 63.375 C-22.41275548 63.45528606 -20.63805832 63.54085713 -18.86523438 63.65600586 C-15.1015888 63.8184502 -11.70949226 63.83989175 -8.1875 62.375 C-3.77519025 58.03772057 -1.47828635 52.01924304 0.8125 46.375 C3.11791992 46.54516602 3.11791992 46.54516602 5.8125 47.375 C7.48168945 49.65991211 7.48168945 49.65991211 8.92578125 52.65234375 C9.45107422 53.72291016 9.97636719 54.79347656 10.51757812 55.89648438 C11.04802734 57.02376953 11.57847656 58.15105469 12.125 59.3125 C12.67478516 60.43591797 13.22457031 61.55933594 13.79101562 62.71679688 C17.8125 71.02453416 17.8125 71.02453416 17.8125 73.375 C21.48283927 70.09791137 23.50531189 66.65977792 25.8125 62.375 C27.640625 62.58984375 27.640625 62.58984375 29.8125 63.375 C31.296875 65.44140625 31.296875 65.44140625 32.5625 67.9375 C32.99046875 68.76378906 33.4184375 69.59007812 33.859375 70.44140625 C34.17390625 71.07949219 34.4884375 71.71757812 34.8125 72.375 C35.4725 72.375 36.1325 72.375 36.8125 72.375 C41.1025 63.795 45.3925 55.215 49.8125 46.375 C51.4625 46.375 53.1125 46.375 54.8125 46.375 C57.4525 51.655 60.0925 56.935 62.8125 62.375 C72.61505284 63.49830432 72.61505284 63.49830432 81.703125 60.72265625 C89.15885681 53.50784095 93.90862516 44.18710398 94.125 33.8125 C94.07008029 27.15348465 92.98065967 22.20777078 89.8125 16.375 C89.32136719 15.42367187 89.32136719 15.42367187 88.8203125 14.453125 C84.72235136 7.69298472 76.96354049 2.94396685 69.4375 0.875 C59.58415061 -0.69378014 50.03277082 0.61573618 41.8125 6.375 C34.96231269 12.05344474 28.73832114 18.31254496 22.75 24.890625 C20.8125 26.375 20.8125 26.375 18.91479492 26.17944336 C16.35559898 25.20016678 15.11661499 23.97703003 13.23828125 21.98828125 C12.23571289 20.9509082 12.23571289 20.9509082 11.21289062 19.89257812 C9.83994739 18.4425754 8.46753601 16.99206888 7.09570312 15.54101562 C-1.61851869 6.52716441 -10.08518142 1.35024842 -22.6875 0 C-30.29325001 0.81490179 -37.09815839 2.59051731 -43.1875 7.375 C-43.99960937 7.9525 -44.81171875 8.53 -45.6484375 9.125 C-48.53887816 11.68637511 -49.79896932 13.95777826 -51.4375 17.4375 C-51.93765625 18.48035156 -52.4378125 19.52320313 -52.953125 20.59765625 C-56.38757177 28.32516148 -56.55248127 37.61245127 -53.75 45.625 C-48.20445584 56.94022086 -36.72519996 65.92575752 -27.86945343 74.67651558 C-25.46944178 77.04957075 -23.0740986 79.42724598 -20.68011475 81.80638123 C-13.88037116 88.56367568 -7.07785162 95.3180975 -0.25927734 102.05639648 C3.92893745 106.19596933 8.10721945 110.34534682 12.27927399 114.50120354 C13.86237489 116.07444675 15.4491146 117.6440376 17.0396347 119.20977974 C19.26466091 121.40087833 21.47678632 123.60428863 23.68652344 125.81079102 C24.33701157 126.445327 24.98749969 127.07986298 25.65769958 127.73362732 C32.19460836 134.31411008 36.83259181 141.55059857 37.125 151 C36.99844414 159.60579828 33.58594385 166.46697913 27.74609375 172.68359375 C21.59825346 178.06140152 14.52883696 179.78148247 6.5234375 179.640625 C-4.93951297 178.51745406 -11.90069608 170.70509068 -19.6015625 162.93359375 C-20.18574951 162.34505615 -20.76993652 161.75651855 -21.37182617 161.15014648 C-22.52449368 159.98303251 -23.67071756 158.80951293 -24.80981445 157.62915039 C-28.03976858 154.31650436 -28.03976858 154.31650436 -32.1875 152.375 C-33.239375 152.705 -34.29125 153.035 -35.375 153.375 C-41.06834287 154.86833584 -45.63053926 154.40642867 -50.875 151.6875 C-55.61177694 148.67023797 -58.95345466 144.934524 -60.5625 139.5 C-61.69326416 133.79181555 -61.14955657 128.79554688 -58.4375 123.625 C-55.08251083 118.77890453 -51.71364603 116.28168196 -46.1875 114.375 C-39.52124099 113.42837129 -34.34181209 113.95494726 -28.83984375 117.94921875 C-24.41056561 121.7711727 -21.52857585 125.80866305 -20.96484375 131.703125 C-20.77580443 137.19348448 -21.51546314 140.49562835 -24.1875 145.375 C-23.8451711 149.1319391 -21.9942348 150.95423147 -19.3984375 153.5625 C-18.62113281 154.34367188 -17.84382813 155.12484375 -17.04296875 155.9296875 C-16.22441406 156.73664063 -15.40585938 157.54359375 -14.5625 158.375 C-13.36947266 159.58542969 -13.36947266 159.58542969 -12.15234375 160.8203125 C-5.72778229 167.21322588 -0.16025728 171.95092142 9.1875 172.53515625 C15.38414836 172.15708693 20.21324001 169.83815276 24.75 165.6875 C29.079745 158.73366712 30.31906073 153.47550348 29.0390625 145.34375 C25.80032458 137.50476651 19.01196888 131.29791195 13.02880859 125.45947266 C12.28479294 124.7248027 11.54077728 123.99013275 10.7742157 123.23320007 C9.17332014 121.65315636 7.57022754 120.07533608 5.96512985 118.49956131 C3.41971252 115.99855682 0.88261957 113.48938209 -1.65219116 110.97763062 C-8.85470695 103.84196193 -16.0654486 96.71477555 -23.296875 89.60839844 C-27.73347928 85.24735103 -32.15510631 80.87158304 -36.56766891 76.4862175 C-38.24376195 74.82615755 -39.92537692 73.17165257 -41.61272049 71.52302933 C-43.97681295 69.21227348 -46.321346 66.88318106 -48.66259766 64.54931641 C-49.69914742 63.54983727 -49.69914742 63.54983727 -50.75663757 62.53016663 C-59.46408808 53.75034844 -62.53167587 43.60086384 -62.5703125 31.48828125 C-62.34884245 19.8980152 -57.4660622 10.45234715 -49.1875 2.375 C-34.82306181 -8.17935855 -15.23219672 -10.80994606 0 0 Z M-53.125 126.5 C-54.73543421 130.85764552 -55.08377067 134.80117428 -54.1875 139.375 C-51.90905001 143.35154007 -49.55759421 145.91830193 -45.1875 147.375 C-40.5280082 147.91638857 -37.08196932 147.80567041 -32.8125 145.75 C-29.32021962 142.59031775 -27.34463613 140.02726739 -27.05859375 135.19921875 C-27.38189481 129.37000266 -28.98595581 126.38112353 -33.1875 122.375 C-40.02314829 117.36219125 -48.00586287 120.8854625 -53.125 126.5 Z " fill="#269FA7" transform="translate(92.1875,158.625)"/>
<path d="M0 0 C4.96983764 2.61424545 7.7780695 6.00092803 10.25 11.0625 C10.9375 13.375 10.9375 13.375 10.9375 16.375 C6.88233097 16.7193068 2.97960448 16.91933674 -1.0625 16.375 C-3.6875 13.4375 -3.6875 13.4375 -5.0625 10.375 C-8.51659031 8.64795484 -12.28568584 8.88615703 -16.0625 9.375 C-18.77898577 10.9201157 -18.77898577 10.9201157 -20.0625 13.375 C-20.27590996 15.44473128 -20.27590996 15.44473128 -19.0625 17.375 C-16.53890719 18.41966417 -14.24486422 19.18077731 -11.625 19.875 C-10.16201063 20.29950782 -8.69976662 20.72659283 -7.23828125 21.15625 C-6.16634521 21.465625 -6.16634521 21.465625 -5.07275391 21.78125 C7.35192893 25.45101301 7.35192893 25.45101301 10.9375 31.375 C13.03055576 35.56111152 12.36114608 40.81632948 11.9375 45.375 C9.65118157 50.29937815 6.77513593 52.95618204 1.9375 55.375 C-6.77181187 57.84880162 -15.00023392 58.00368008 -23.38671875 54.3671875 C-28.40287809 51.5670394 -30.79633125 48.63251151 -33.0625 43.375 C-33.60267474 41.00654152 -33.86396261 38.80708302 -34.0625 36.375 C-29.96512545 35.90448809 -26.13866297 35.6575528 -22.0625 36.375 C-20.03771048 38.29661553 -19.08024421 39.9987947 -17.9296875 42.52734375 C-17.20841879 44.56023729 -17.20841879 44.56023729 -15.0625 45.375 C-7.87442025 46.09237329 -7.87442025 46.09237329 -1.3125 43.6875 C0.11948058 41.43644454 0.11948058 41.43644454 0.0625 38.8125 C-1.54710138 35.32503034 -3.57240701 34.88336203 -7.0625 33.375 C-10.82323105 32.31829886 -14.60362235 31.42784628 -18.40625 30.53515625 C-23.34409312 28.96834064 -27.72775858 26.41179224 -31.0625 22.375 C-32.7979912 17.1685264 -32.72594383 12.22565911 -30.875 7.0625 C-24.10026817 -2.98279203 -10.75270085 -4.33722387 0 0 Z " fill="#1FA2AA" transform="translate(345.0625,246.625)"/>
<path d="M0 0 C3.58992617 2.94401142 6.25818888 6.408001 8.0625 10.69140625 C8.2109375 13.47265625 8.2109375 13.47265625 8.0625 15.69140625 C4.00791776 16.03566323 0.104457 16.23249822 -3.9375 15.69140625 C-6.375 12.81640625 -6.375 12.81640625 -7.9375 9.69140625 C-12.80617222 6.79652007 -17.86922722 7.22311807 -23.25 8.44140625 C-25.98976941 9.43949923 -25.98976941 9.43949923 -27.1875 11.50390625 C-27.435 12.22578125 -27.6825 12.94765625 -27.9375 13.69140625 C-28.27523437 14.42101562 -28.61296875 15.150625 -28.9609375 15.90234375 C-31.25768585 22.46185704 -31.16130378 30.99283778 -28.3125 37.37890625 C-26.14951177 40.91077864 -23.95075451 42.45655871 -19.9375 43.69140625 C-16.0608225 44.22454461 -12.80613606 44.03886067 -9.125 42.56640625 C-6.43342712 40.25934378 -5.30566353 37.93179356 -3.9375 34.69140625 C0.0225 34.69140625 3.9825 34.69140625 8.0625 34.69140625 C7.81777521 41.54370044 6.10755554 45.92134326 1.0625 50.69140625 C-5.99083382 55.28335153 -13.79728583 56.3708134 -22 55.06640625 C-29.72525812 53.26704489 -35.49039817 49.29852898 -39.9375 42.69140625 C-44.29862614 34.49670956 -44.29176717 23.58285101 -42.24609375 14.68359375 C-39.68054062 7.66320986 -35.70425801 1.88473396 -29.0625 -1.74609375 C-20.09105678 -5.23751835 -8.30867616 -4.926259 0 0 Z " fill="#20A2AA" transform="translate(178.9375,248.30859375)"/>
<path d="M0 0 C4.95525188 2.98987772 8.25872346 6.75997306 9.8125 12.375 C10.60899269 15.88249074 10.5 18.59067493 10.5 22.375 C0.27 22.375 -9.96 22.375 -20.5 22.375 C-17.34064264 28.85874547 -17.34064264 28.85874547 -14.6875 30.875 C-11.33322886 31.64169055 -8.82059766 31.20514941 -5.5 30.375 C-4.63375 29.3540625 -4.63375 29.3540625 -3.75 28.3125 C0.02608226 25.06087361 4.72122366 26.0783863 9.5 26.375 C7.84422003 32.69706896 5.05334535 36.81172733 -0.5625 40.25 C-6.97566464 42.58842466 -14.70999154 42.56889114 -20.9375 39.75 C-25.82212891 36.88624667 -29.39751674 32.64965099 -31.5 27.375 C-32.32858311 19.55163391 -32.59529247 11.75892749 -27.5 5.375 C-20.20348171 -2.17026323 -9.9314567 -4.57644563 0 0 Z M-16.5 8.375 C-19.23215678 10.99790074 -19.23215678 10.99790074 -20.5 14.375 C-14.23 14.375 -7.96 14.375 -1.5 14.375 C-2.47709943 10.05298637 -2.47709943 10.05298637 -5.5 7.375 C-9.82532612 6.15262523 -12.58258302 6.10702175 -16.5 8.375 Z " fill="#1EA2AA" transform="translate(296.5,261.625)"/>
<path d="M0 0 C3.63 0 7.26 0 11 0 C13.97 8.91 16.94 17.82 20 27 C22.59122426 18.48945276 22.59122426 18.48945276 25.17553711 9.97680664 C25.4978833 8.92356201 25.82022949 7.87031738 26.15234375 6.78515625 C26.48226318 5.70113525 26.81218262 4.61711426 27.15209961 3.50024414 C28 1 28 1 29 0 C30.68608966 -0.07205511 32.37500659 -0.08386068 34.0625 -0.0625 C34.98160156 -0.05347656 35.90070313 -0.04445313 36.84765625 -0.03515625 C37.55792969 -0.02355469 38.26820313 -0.01195312 39 0 C40 2 40 2 39.53974915 3.93974304 C39.26535507 4.73137344 38.990961 5.52300385 38.70825195 6.33862305 C38.40075516 7.23683273 38.09325836 8.13504242 37.77644348 9.06047058 C37.43384995 10.03438248 37.09125641 11.00829437 36.73828125 12.01171875 C36.39121628 13.01330521 36.04415131 14.01489166 35.68656921 15.04682922 C34.94782319 17.17240192 34.20526066 19.29665135 33.45922852 21.41967773 C32.32458205 24.65306988 31.20537843 27.89150301 30.08789062 31.13085938 C29.36811641 33.19563655 28.64744151 35.26010001 27.92578125 37.32421875 C27.59330887 38.28800949 27.26083649 39.25180023 26.91828918 40.24479675 C22.33445284 53.20502156 22.33445284 53.20502156 18.140625 56.4296875 C15.28376833 57.19082085 12.7024374 57.18918342 9.75 57.125 C8.67234375 57.10695313 7.5946875 57.08890625 6.484375 57.0703125 C5.25460937 57.03550781 5.25460937 57.03550781 4 57 C2.875 50.25 2.875 50.25 4 48 C5.134375 47.855625 6.26875 47.71125 7.4375 47.5625 C8.613125 47.376875 9.78875 47.19125 11 47 C13.33502478 44.15470024 13.33502478 44.15470024 12.79516602 40.79760742 C11.95526721 36.78636211 10.73613818 33.05447469 9.27734375 29.23828125 C9.01240616 28.52520309 8.74746857 27.81212494 8.47450256 27.07743835 C7.63544996 24.81992067 6.78755968 22.56589407 5.9375 20.3125 C4.81412842 17.33215876 3.69952522 14.34874246 2.58984375 11.36328125 C2.33049545 10.68405106 2.07114716 10.00482086 1.80393982 9.30500793 C0.55439883 5.94268056 0 3.64649831 0 0 Z " fill="#1FA2AA" transform="translate(361,260)"/>
<path d="M0 0 C3.63 0 7.26 0 11 0 C11.01458252 0.89307861 11.02916504 1.78615723 11.04418945 2.70629883 C11.10527077 6.02217278 11.17942478 9.33721899 11.26245117 12.65258789 C11.29569001 14.08704628 11.32372535 15.52163513 11.34643555 16.95629883 C11.38000271 19.01960807 11.43231413 21.08172303 11.48828125 23.14453125 C11.51446533 24.38565674 11.54064941 25.62678223 11.56762695 26.90551758 C11.75350085 29.9594084 11.75350085 29.9594084 13.34448242 31.9050293 C15.94808711 33.62707133 17.96815531 33.37898059 21 33 C23.81337712 31.05973992 24.36019286 29.26038709 25 26 C25.14625035 23.97649331 25.24683203 21.94946666 25.31640625 19.921875 C25.35830078 18.76171875 25.40019531 17.6015625 25.44335938 16.40625 C25.48267578 15.1996875 25.52199219 13.993125 25.5625 12.75 C25.60568359 11.52796875 25.64886719 10.3059375 25.69335938 9.046875 C25.79937355 6.0313608 25.90143936 3.01576552 26 0 C27.64574566 -0.02688151 29.29161413 -0.04634123 30.9375 -0.0625 C31.85402344 -0.07410156 32.77054688 -0.08570313 33.71484375 -0.09765625 C36 0 36 0 37 1 C37.08871273 4.02977804 37.1151935 7.03667022 37.09765625 10.06640625 C37.0962413 10.97502914 37.09482635 11.88365204 37.09336853 12.81980896 C37.08775193 15.73407221 37.07519665 18.64825981 37.0625 21.5625 C37.05748714 23.53320202 37.05292386 25.50390524 37.04882812 27.47460938 C37.03777711 32.31643559 37.02050138 37.15820495 37 42 C32.05 42.495 32.05 42.495 27 43 C26.34 42.01 25.68 41.02 25 40 C24.401875 40.495 23.80375 40.99 23.1875 41.5 C18.47107156 43.71949574 14.12634564 43.66243527 9 43 C4.27085296 40.88877364 2.52800782 38.70243369 0.59994507 33.94894409 C-0.39183302 30.72711573 -0.33336194 27.66904134 -0.29296875 24.31640625 C-0.28872391 23.61603745 -0.28447906 22.91566864 -0.28010559 22.19407654 C-0.26347156 19.98314 -0.2258518 17.77315543 -0.1875 15.5625 C-0.17243326 14.05274765 -0.15874836 12.54298084 -0.14648438 11.03320312 C-0.11361921 7.35516566 -0.06194582 3.67767593 0 0 Z " fill="#1EA2AA" transform="translate(193,260)"/>
<path d="M0 0 C1.37478516 0.01740234 1.37478516 0.01740234 2.77734375 0.03515625 C3.69644531 0.04417969 4.61554688 0.05320312 5.5625 0.0625 C6.27277344 0.07410156 6.98304688 0.08570313 7.71484375 0.09765625 C8.04484375 1.08765625 8.37484375 2.07765625 8.71484375 3.09765625 C9.31296875 2.60265625 9.91109375 2.10765625 10.52734375 1.59765625 C15.22250929 -0.61183341 19.60792701 -0.47148809 24.71484375 0.09765625 C28.50471264 1.67676829 30.5481229 3.63090289 32.71484375 7.09765625 C33.88359185 10.60390055 33.83998642 13.74544285 33.8125 17.390625 C33.81108505 18.09665359 33.8096701 18.80268219 33.80821228 19.53010559 C33.80262139 21.78183251 33.79007063 24.03345946 33.77734375 26.28515625 C33.77232757 27.8131496 33.76776487 29.34114452 33.76367188 30.86914062 C33.75265495 34.6120176 33.73539662 38.35481998 33.71484375 42.09765625 C32.25748288 42.29257077 30.79889782 42.47834983 29.33984375 42.66015625 C28.12167969 42.81677734 28.12167969 42.81677734 26.87890625 42.9765625 C24.71484375 43.09765625 24.71484375 43.09765625 22.71484375 42.09765625 C22.69502441 41.23487061 22.67520508 40.37208496 22.65478516 39.4831543 C22.57664731 36.27928669 22.48995293 33.07579731 22.39746094 29.87231445 C22.35920025 28.48633718 22.32434219 27.1002616 22.29296875 25.71411133 C22.24725676 23.72063985 22.1882545 21.72748711 22.12890625 19.734375 C22.0817749 17.93552856 22.0817749 17.93552856 22.03369141 16.1003418 C21.93054881 12.91882919 21.93054881 12.91882919 19.71484375 10.09765625 C15.05552764 9.56235296 15.05552764 9.56235296 10.83984375 11.28515625 C8.5038014 15.04878004 8.56034268 19.51075637 8.3984375 23.8359375 C8.35654297 24.90263672 8.31464844 25.96933594 8.27148438 27.06835938 C8.21250977 28.72254883 8.21250977 28.72254883 8.15234375 30.41015625 C8.10916016 31.53228516 8.06597656 32.65441406 8.02148438 33.81054688 C7.91569588 36.57280194 7.81360703 39.33514255 7.71484375 42.09765625 C6.25748288 42.29257077 4.79889782 42.47834983 3.33984375 42.66015625 C2.12167969 42.81677734 2.12167969 42.81677734 0.87890625 42.9765625 C-1.28515625 43.09765625 -1.28515625 43.09765625 -3.28515625 42.09765625 C-3.30980263 36.27694003 -3.32799055 30.45625391 -3.34008789 24.63549805 C-3.34512892 22.65372184 -3.35196163 20.67194936 -3.3605957 18.69018555 C-3.3726714 15.84813516 -3.3783867 13.00613378 -3.3828125 10.1640625 C-3.38797379 9.27239883 -3.39313507 8.38073517 -3.39845276 7.46205139 C-3.39864802 5.34025024 -3.34725655 3.21854845 -3.28515625 1.09765625 C-2.28515625 0.09765625 -2.28515625 0.09765625 0 0 Z " fill="#1CA3AB" transform="translate(408.28515625,259.90234375)"/>
<path d="M0 0 C3.24208897 1.94935729 5.48081102 4.02526252 7.4375 7.3125 C8.1875 10.625 8.1875 10.625 8.4375 13.3125 C4.72693475 13.60492633 1.13912159 13.7587948 -2.5625 13.3125 C-5.3125 10.8125 -5.3125 10.8125 -7.5625 8.3125 C-11.0625 7.47916667 -11.0625 7.47916667 -14.5625 8.3125 C-17.72204305 10.85387159 -19.27790886 12.45872659 -20.5625 16.3125 C-20.95787729 21.55124905 -20.36838657 24.84386583 -17.5625 29.3125 C-13.86763897 31.77574069 -11.92956908 31.70241688 -7.5625 31.3125 C-5.45891619 29.76987187 -4.72195841 28.63141683 -3.5625 26.3125 C0.3975 26.3125 4.3575 26.3125 8.4375 26.3125 C7.37056615 31.64716925 6.19092669 35.10840228 1.8515625 38.58203125 C-4.1908681 42.18964277 -10.72480231 42.1576087 -17.5625 41.3125 C-22.91923935 39.73001934 -26.6124355 37.12001251 -29.5625 32.3125 C-32.94385692 25.76935479 -33.87887966 18.99791912 -31.87109375 11.8515625 C-29.44395243 5.73800989 -26.27323332 2.09844818 -20.265625 -0.79296875 C-13.90714662 -2.89714729 -6.11710818 -2.84008594 0 0 Z " fill="#1EA3AB" transform="translate(480.5625,261.6875)"/>
<path d="M0 0 C1.62463842 -0.05395478 3.24978541 -0.09277195 4.875 -0.125 C5.77992188 -0.14820313 6.68484375 -0.17140625 7.6171875 -0.1953125 C10 0 10 0 12 2 C12.515625 1.67 13.03125 1.34 13.5625 1 C16.78026512 -0.32010877 19.5570528 -0.13242105 23 0 C24.6415049 3.2830098 23.51888624 6.42545033 23 10 C22.37351562 10.18175781 21.74703125 10.36351562 21.1015625 10.55078125 C19.87566406 10.92783203 19.87566406 10.92783203 18.625 11.3125 C17.40683594 11.67794922 17.40683594 11.67794922 16.1640625 12.05078125 C13.66815371 12.91368185 13.66815371 12.91368185 12 16 C11.63155492 18.8086043 11.63155492 18.8086043 11.5859375 21.98046875 C11.52792969 23.72553711 11.52792969 23.72553711 11.46875 25.50585938 C11.42234375 27.32827148 11.42234375 27.32827148 11.375 29.1875 C11.31699219 31.02731445 11.31699219 31.02731445 11.2578125 32.90429688 C11.16343897 35.93604656 11.07785451 38.96778841 11 42 C7.50615721 43.16461426 4.66344611 43.13568319 1 43 C0 42 0 42 -0.11352539 38.03100586 C-0.1133662 36.25894393 -0.10766785 34.4868774 -0.09765625 32.71484375 C-0.0962413 31.78402481 -0.09482635 30.85320587 -0.09336853 29.8941803 C-0.08775172 26.90858809 -0.0751964 23.92306971 -0.0625 20.9375 C-0.05748716 18.91862087 -0.05292388 16.89974057 -0.04882812 14.88085938 C-0.03777683 9.92054428 -0.02050095 4.96028468 0 0 Z " fill="#1FA2AA" transform="translate(238,260)"/>
<path d="M0 0 C1.32 0 2.64 0 4 0 C4 0.66 4 1.32 4 2 C3.34 2.66 2.68 3.32 2 4 C2.66 4 3.32 4 4 4 C4.66 4.66 5.32 5.32 6 6 C6.99 6.33 7.98 6.66 9 7 C10.39886325 9.7977265 10.12974597 12.12388892 10.1328125 15.25 C10.13410156 16.4978125 10.13539063 17.745625 10.13671875 19.03125 C10.13285156 20.3409375 10.12898438 21.650625 10.125 23 C10.12886719 24.3096875 10.13273437 25.619375 10.13671875 26.96875 C10.13542969 28.2165625 10.13414062 29.464375 10.1328125 30.75 C10.13168457 31.89984375 10.13055664 33.0496875 10.12939453 34.234375 C10 37 10 37 9 39 C7.02 39 5.04 39 3 39 C2.67 39.66 2.34 40.32 2 41 C0.54217727 38.08435454 0.94369472 35.5633988 1.0078125 32.3125 C1.02532515 30.96094496 1.04223378 29.60938198 1.05859375 28.2578125 C1.08960475 26.12445278 1.1251844 23.99148636 1.17138672 21.85839844 C1.21362818 19.80138153 1.2371347 17.7448312 1.2578125 15.6875 C1.2798877 14.45386719 1.30196289 13.22023438 1.32470703 11.94921875 C1.21755371 10.97597656 1.11040039 10.00273437 1 9 C0.01 8.34 -0.98 7.68 -2 7 C-2.3125 4.5 -2.3125 4.5 -2 2 C-1.34 1.34 -0.68 0.68 0 0 Z " fill="#1BA4AB" transform="translate(431,262)"/>
<path d="M0 0 C4.09737455 -0.47051191 7.92383703 -0.7174472 12 0 C14.02478952 1.92161553 14.98225579 3.6237947 16.1328125 6.15234375 C16.85408121 8.18523729 16.85408121 8.18523729 19 9 C21.2072923 9.07092842 23.41667452 9.08415025 25.625 9.0625 C27.40777344 9.04896484 27.40777344 9.04896484 29.2265625 9.03515625 C30.59941406 9.01775391 30.59941406 9.01775391 32 9 C32 9.66 32 10.32 32 11 C29.72923158 11.02699725 27.45837179 11.04639453 25.1875 11.0625 C23.92292969 11.07410156 22.65835937 11.08570313 21.35546875 11.09765625 C18 11 18 11 15 10 C15 10.99 15 11.98 15 13 C13.68 13 12.36 13 11 13 C10.67 13.99 10.34 14.98 10 16 C14.95 16 19.9 16 25 16 C24.34 16.66 23.68 17.32 23 18 C22.01 18 21.02 18 20 18 C20 18.66 20 19.32 20 20 C13.97023398 19.62313962 9.65226951 17.9240882 5 14 C1.49474525 9.76952013 0.43615902 5.342948 0 0 Z " fill="#23A1A8" transform="translate(311,283)"/>
<path d="M0 0 C4.38631229 0.08600612 7.27645662 0.32783704 10.6875 3.3125 C14.62097265 7.80789732 14.82857097 11.84791437 14.78515625 17.60546875 C14.7837413 18.31149734 14.78232635 19.01752594 14.78086853 19.74494934 C14.77527764 21.99667626 14.76272688 24.24830321 14.75 26.5 C14.74498382 28.02799335 14.74042112 29.55598827 14.73632812 31.08398438 C14.7253112 34.82686135 14.70805287 38.56966373 14.6875 42.3125 C12.0475 42.3125 9.4075 42.3125 6.6875 42.3125 C6.6875 41.9825 6.6875 41.6525 6.6875 41.3125 C8.6675 41.3125 10.6475 41.3125 12.6875 41.3125 C12.71219321 37.0766643 12.73035671 32.84086658 12.74243164 28.60498047 C12.74746474 27.1635668 12.75429173 25.72215824 12.76293945 24.28076172 C12.77504983 22.21059915 12.78073847 20.14050399 12.78515625 18.0703125 C12.79039307 16.8239502 12.79562988 15.57758789 12.80102539 14.29345703 C12.89566587 11.38478894 12.89566587 11.38478894 11.6875 9.3125 C9.66286745 8.66036708 9.66286745 8.66036708 7.6875 8.3125 C7.6875 7.6525 7.6875 6.9925 7.6875 6.3125 C6.3675 6.6425 5.0475 6.9725 3.6875 7.3125 C4.3475 6.3225 5.0075 5.3325 5.6875 4.3125 C6.3475 4.3125 7.0075 4.3125 7.6875 4.3125 C7.6875 3.6525 7.6875 2.9925 7.6875 2.3125 C6.0375 2.9725 4.3875 3.6325 2.6875 4.3125 C2.43719023 6.72869823 2.43719023 6.72869823 2.6875 9.3125 C3.6775 9.9725 4.6675 10.6325 5.6875 11.3125 C6.02807617 14.29345703 6.02807617 14.29345703 5.98046875 18.0703125 C5.97622391 18.73336395 5.97197906 19.39641541 5.96760559 20.07955933 C5.95079971 22.19928441 5.91314701 24.31806188 5.875 26.4375 C5.85995549 27.87368419 5.84626668 29.30988328 5.83398438 30.74609375 C5.8008909 34.26853764 5.7490968 37.79042636 5.6875 41.3125 C4.6975 41.8075 4.6975 41.8075 3.6875 42.3125 C3.66768066 41.44971436 3.64786133 40.58692871 3.62744141 39.69799805 C3.54930356 36.49413044 3.46260918 33.29064106 3.37011719 30.0871582 C3.3318565 28.70118093 3.29699844 27.31510535 3.265625 25.92895508 C3.21991301 23.9354836 3.16091075 21.94233086 3.1015625 19.94921875 C3.0701416 18.74998779 3.0387207 17.55075684 3.00634766 16.31518555 C2.90320506 13.13367294 2.90320506 13.13367294 0.6875 10.3125 C-3.02890139 10.04221626 -5.769701 10.131567 -9.3125 11.3125 C-9.3125 10.3225 -9.3125 9.3325 -9.3125 8.3125 C-8.405 8.23 -7.4975 8.1475 -6.5625 8.0625 C-2.91172161 7.22001268 -1.67865417 6.13368382 0.6875 3.3125 C-1.9525 2.9825 -4.5925 2.6525 -7.3125 2.3125 C-4.73034328 -0.26965672 -3.58546873 0.01455535 0 0 Z " fill="#2E9CA2" transform="translate(427.3125,259.6875)"/>
<path d="M0 0 C2.80135778 1.6548105 4.73579043 3.38138325 6.375 6.25 C3.88138429 5.04618552 1.69356917 3.79571278 -0.625 2.25 C-3.14084891 2.00849227 -3.14084891 2.00849227 -5.8125 2.125 C-7.16408203 2.15207031 -7.16408203 2.15207031 -8.54296875 2.1796875 C-9.57357422 2.21449219 -9.57357422 2.21449219 -10.625 2.25 C-8.07222581 5.04233071 -6.40139718 5.73967606 -2.625 6.25 C-2.955 7.57 -3.285 8.89 -3.625 10.25 C-4.285 9.59 -4.945 8.93 -5.625 8.25 C-9.98797592 7.08653976 -12.65187787 7.05432725 -16.625 9.25 C-18.89691416 11.27040748 -18.89691416 11.27040748 -20.625 13.25 C-20.625 10.61 -20.625 7.97 -20.625 5.25 C-21.615 6.735 -21.615 6.735 -22.625 8.25 C-26.25 9.4375 -26.25 9.4375 -29.625 10.25 C-28.25023555 5.05644539 -24.88158407 2.24572509 -20.625 -0.75 C-14.18928952 -2.89523683 -6.18679291 -2.93786255 0 0 Z " fill="#24A1A5" transform="translate(296.625,261.75)"/>
<path d="M0 0 C0.66 0.33 1.32 0.66 2 1 C2 1.99 2 2.98 2 4 C2.99 4.33 3.98 4.66 5 5 C5.87890625 7.25 5.87890625 7.25 6.5625 10 C7.20149184 12.68457638 7.20149184 12.68457638 8 15 C10.34852528 16.17426264 11.73774065 16.11508173 14.3515625 16.09765625 C15.62773437 16.09282227 15.62773437 16.09282227 16.9296875 16.08789062 C18.26386719 16.07532227 18.26386719 16.07532227 19.625 16.0625 C20.5221875 16.05798828 21.419375 16.05347656 22.34375 16.04882812 C24.56256648 16.03702591 26.78125018 16.02056155 29 16 C29.495 17.485 29.495 17.485 30 19 C28.35 19.33 26.7 19.66 25 20 C25 20.33 25 20.66 25 21 C22.75026553 21.054138 20.50015617 21.09285491 18.25 21.125 C16.99703125 21.14820313 15.7440625 21.17140625 14.453125 21.1953125 C11.23051382 21.01303811 9.59643533 20.83206418 7 19 C5 16 5 16 5 13 C4.34 13 3.68 13 3 13 C2.67 12.34 2.34 11.68 2 11 C-0.02463255 10.34786708 -0.02463255 10.34786708 -2 10 C-2 9.01 -2 8.02 -2 7 C-2.66 6.67 -3.32 6.34 -4 6 C-2.68 4.02 -1.36 2.04 0 0 Z " fill="#1AA4AC" transform="translate(144,206)"/>
<path d="M0 0 C0.33 0 0.66 0 1 0 C1.04254356 1.99954746 1.04080783 4.00041636 1 6 C0.67 6.33 0.34 6.66 0 7 C-0.87833832 17.20127217 -0.33451167 25.93884356 5 35 C5.98058793 36.01904235 6.97753676 37.02297957 8 38 C9.1875 40.6875 9.1875 40.6875 10 43 C3.06131266 38.32042017 0.58823947 31.76471841 -2 24 C-2.22455491 21.06644486 -2.18514884 18.12879527 -2.1875 15.1875 C-2.19974609 14.39279297 -2.21199219 13.59808594 -2.22460938 12.77929688 C-2.23618411 8.11467732 -1.78774425 4.38809952 0 0 Z M2 1 C3.32 1.33 4.64 1.66 6 2 C5.84144531 2.85078125 5.68289062 3.7015625 5.51953125 4.578125 C4.07378784 14.10046503 3.86251477 23.57395967 9 32 C11.49426222 35.18446837 14.14764421 38.13379783 17 41 C15.02 41.495 15.02 41.495 13 42 C12.566875 41.195625 12.13375 40.39125 11.6875 39.5625 C10.19525998 36.72153646 10.19525998 36.72153646 7 36 C7 34.35 7 32.7 7 31 C6.34 31 5.68 31 5 31 C2.42927609 25.04344459 2.55529731 19.0030173 2.375 12.625 C2.33632813 11.50738281 2.29765625 10.38976562 2.2578125 9.23828125 C2.16393445 6.49234839 2.07825089 3.74641524 2 1 Z " fill="#309CA2" transform="translate(32,177)"/>
<path d="M0 0 C1.65 0 3.3 0 5 0 C5.66 1.98 6.32 3.96 7 6 C5.0625 5.6875 5.0625 5.6875 3 5 C2.67 4.01 2.34 3.02 2 2 C0.50178941 5.37097383 0 7.20442119 0 11 C1.65 11.33 3.3 11.66 5 12 C4.67 12.66 4.34 13.32 4 14 C3.01 14 2.02 14 1 14 C-1.31 18.62 -3.62 23.24 -6 28 C-6.33 28 -6.66 28 -7 28 C-8.65176045 24.59377896 -9.16873313 21.79000577 -9 18 C-6.77377336 11.67558648 -3.33060767 5.79870737 0 0 Z " fill="#2C9BA1" transform="translate(142,205)"/>
<path d="M0 0 C2.64 0 5.28 0 8 0 C8 0.99 8 1.98 8 3 C8.99 3.33 9.98 3.66 11 4 C11 4.66 11 5.32 11 6 C11.66 6.33 12.32 6.66 13 7 C12.01 8.65 11.02 10.3 10 12 C6.89014034 11.05980987 4.27752344 10.18501563 1.5625 8.375 C-1.74893788 6.5981309 -4.29964734 6.7823322 -8 7 C-8 6.34 -8 5.68 -8 5 C-8.66 4.67 -9.32 4.34 -10 4 C-8.35 3.67 -6.7 3.34 -5 3 C-5 3.66 -5 4.32 -5 5 C-3.35 4.34 -1.7 3.68 0 3 C0 2.01 0 1.02 0 0 Z " fill="#1CA4AB" transform="translate(338,247)"/>
<path d="M0 0 C1.85776765 3.13498292 2.20140476 5.37471432 2 9 C1.071875 9.433125 0.14375 9.86625 -0.8125 10.3125 C-4.37238031 12.15818228 -4.37238031 12.15818228 -7 15 C-7.72197162 17.60611077 -7.72197162 17.60611077 -8 20 C-8.66 20 -9.32 20 -10 20 C-10 18.35 -10 16.7 -10 15 C-10.66 15 -11.32 15 -12 15 C-11.49145873 10.55026389 -9.85582283 8.37506334 -7 5 C-6.443125 3.88625 -6.443125 3.88625 -5.875 2.75 C-4.43125427 -0.13749146 -3.15709496 0 0 0 Z " fill="#1CA5AC" transform="translate(121,223)"/>
<path d="M0 0 C-2.475 1.485 -2.475 1.485 -5 3 C-4.67 3.66 -4.34 4.32 -4 5 C-3.34 4.67 -2.68 4.34 -2 4 C-0.00039988 3.960008 2.00047242 3.95653201 4 4 C4 4.33 4 4.66 4 5 C2.91332031 5.25523437 2.91332031 5.25523437 1.8046875 5.515625 C-3.88288355 6.94130948 -8.28422842 8.38091948 -13 12 C-14.11980096 12.7577406 -15.24478288 13.50788528 -16.375 14.25 C-17.24125 14.8275 -18.1075 15.405 -19 16 C-18.67 14.68 -18.34 13.36 -18 12 C-16.68 11.67 -15.36 11.34 -14 11 C-14 10.34 -14 9.68 -14 9 C-13.34 9 -12.68 9 -12 9 C-12.33 8.34 -12.66 7.68 -13 7 C-13.99 7 -14.98 7 -16 7 C-16 7.66 -16 8.32 -16 9 C-17.98 9.99 -19.96 10.98 -22 12 C-19.48048036 5.82784343 -12.99141039 2.8011417 -7.1875 0.0625 C-4.12400451 -0.95866516 -2.90654009 -1.27887764 0 0 Z " fill="#2D9CA1" transform="translate(62,154)"/>
<path d="M0 0 C0.99 1.485 0.99 1.485 2 3 C4.83772301 6.48634542 6.09970827 7.87582183 10.625 8.5 C13.9247849 8.27948175 13.9247849 8.27948175 15.875 6.625 C17.06481812 4.98821489 17.06481812 4.98821489 18 3 C21.96 3 25.92 3 30 3 C29.13108088 7.34459562 28.48920474 9.51511336 26 13 C25.34 13 24.68 13 24 13 C24 11.35 24 9.7 24 8 C22.02 7.34 20.04 6.68 18 6 C17.67 6.99 17.34 7.98 17 9 C12.57470667 11.21264666 7.03473859 10.29045294 2.4375 9 C1.633125 8.67 0.82875 8.34 0 8 C0 5.36 0 2.72 0 0 Z " fill="#299FA4" transform="translate(459,285)"/>
<path d="M0 0 C1.98 0.66 3.96 1.32 6 2 C7.06696501 6.03075672 6.67856443 8.92861344 6 13 C6.36858988 15.76864953 6.36858988 15.76864953 7 18 C8.98 18 10.96 18 13 18 C13.33 18.99 13.66 19.98 14 21 C13.505 21.45375 13.01 21.9075 12.5 22.375 C10.77390663 23.87635519 10.77390663 23.87635519 11 26 C11 26.99 11 27.98 11 29 C11.66 29 12.32 29 13 29 C13 31.31 13 33.62 13 36 C10.86901394 32.80352091 9.72638753 29.85328195 8.3984375 26.25 C8.1571109 25.59547852 7.9157843 24.94095703 7.66714478 24.26660156 C7.1592523 22.88549297 6.65338611 21.50363775 6.14941406 20.12109375 C5.37695536 18.00535566 4.59515359 15.8932348 3.8125 13.78125 C3.31974394 12.43770839 2.82753769 11.09396497 2.3359375 9.75 C1.66377197 7.91695313 1.66377197 7.91695313 0.97802734 6.046875 C0 3 0 3 0 0 Z " fill="#2B9EA4" transform="translate(362,264)"/>
<path d="M0 0 C0.33 0.99 0.66 1.98 1 3 C3.01508358 3.73323796 3.01508358 3.73323796 5 4 C5.05447047 5.41623216 5.09300508 6.83308191 5.125 8.25 C5.14820313 9.03890625 5.17140625 9.8278125 5.1953125 10.640625 C4.97755293 13.27116062 4.48041976 14.81832878 3 17 C-0.125 17.75 -0.125 17.75 -3 18 C-3 17.01 -3 16.02 -3 15 C-3.66 14.67 -4.32 14.34 -5 14 C-4.34 14 -3.68 14 -3 14 C-3.061875 12.906875 -3.12375 11.81375 -3.1875 10.6875 C-3 7 -3 7 -1.5 5.0625 C-1.005 4.711875 -0.51 4.36125 0 4 C-0.66 3.67 -1.32 3.34 -2 3 C-1.34 2.01 -0.68 1.02 0 0 Z " fill="#19A5AB" transform="translate(350,274)"/>
<path d="M0 0 C1.37478516 0.01740234 1.37478516 0.01740234 2.77734375 0.03515625 C3.69644531 0.04417969 4.61554688 0.05320312 5.5625 0.0625 C6.27277344 0.07410156 6.98304688 0.08570313 7.71484375 0.09765625 C7.38484375 0.75765625 7.05484375 1.41765625 6.71484375 2.09765625 C4.07484375 2.09765625 1.43484375 2.09765625 -1.28515625 2.09765625 C-1.28515625 15.29765625 -1.28515625 28.49765625 -1.28515625 42.09765625 C-1.94515625 42.09765625 -2.60515625 42.09765625 -3.28515625 42.09765625 C-3.30980263 36.27694003 -3.32799055 30.45625391 -3.34008789 24.63549805 C-3.34512892 22.65372184 -3.35196163 20.67194936 -3.3605957 18.69018555 C-3.3726714 15.84813516 -3.3783867 13.00613378 -3.3828125 10.1640625 C-3.38797379 9.27239883 -3.39313507 8.38073517 -3.39845276 7.46205139 C-3.39864802 5.34025024 -3.34725655 3.21854845 -3.28515625 1.09765625 C-2.28515625 0.09765625 -2.28515625 0.09765625 0 0 Z " fill="#3390A0" transform="translate(408.28515625,259.90234375)"/>
<path d="M0 0 C1.37478516 0.01740234 1.37478516 0.01740234 2.77734375 0.03515625 C3.69644531 0.04417969 4.61554688 0.05320312 5.5625 0.0625 C6.27277344 0.07410156 6.98304688 0.08570313 7.71484375 0.09765625 C8.71484375 2.09765625 8.71484375 2.09765625 8.27758789 3.88525391 C8.02098389 4.5869873 7.76437988 5.2887207 7.5 6.01171875 C7.22607422 6.77226562 6.95214844 7.5328125 6.66992188 8.31640625 C6.37537109 9.11046875 6.08082031 9.90453125 5.77734375 10.72265625 C5.48666016 11.52445312 5.19597656 12.32625 4.89648438 13.15234375 C4.1760185 15.13657763 3.44629237 17.11744462 2.71484375 19.09765625 C1.45246644 15.31052432 2.03925502 12.84113692 2.65234375 8.91015625 C2.84699219 7.63785156 3.04164063 6.36554688 3.2421875 5.0546875 C3.39816406 4.07886719 3.55414063 3.10304688 3.71484375 2.09765625 C3.05484375 2.09765625 2.39484375 2.09765625 1.71484375 2.09765625 C1.38484375 3.74765625 1.05484375 5.39765625 0.71484375 7.09765625 C-0.27515625 6.76765625 -1.26515625 6.43765625 -2.28515625 6.09765625 C-3.27515625 8.73765625 -4.26515625 11.37765625 -5.28515625 14.09765625 C-6.30711179 10.00983409 -6.25642626 9.14636431 -4.91015625 5.41015625 C-4.63429688 4.62253906 -4.3584375 3.83492188 -4.07421875 3.0234375 C-2.88593972 0.12333076 -2.88593972 0.12333076 0 0 Z " fill="#1F9EA6" transform="translate(392.28515625,259.90234375)"/>
<path d="M0 0 C0.8723412 2.99480917 1.10829766 5.63575911 1.0625 8.75 C1.05347656 9.54921875 1.04445313 10.3484375 1.03515625 11.171875 C1.01775391 12.07679688 1.01775391 12.07679688 1 13 C3.38564077 12.42415568 5.66682784 11.77772405 8 11 C7.33333333 13.66666667 6.66666667 16.33333333 6 19 C7.32 19 8.64 19 10 19 C10 19.66 10 20.32 10 21 C10.67546875 20.95359375 11.3509375 20.9071875 12.046875 20.859375 C19.42367067 20.56089194 19.42367067 20.56089194 22.625 23 C23.305625 23.99 23.305625 23.99 24 25 C16.37755426 24.42472108 7.58959124 22.92019478 1.875 17.4375 C-0.69232836 14.09997313 -1.13864682 11.594045 -1.125 7.5 C-1.12757813 6.7265625 -1.13015625 5.953125 -1.1328125 5.15625 C-1 3 -1 3 0 0 Z " fill="#2F9DA2" transform="translate(314,254)"/>
<path d="M0 0 C1.828125 0.21484375 1.828125 0.21484375 4 1 C5.484375 3.06640625 5.484375 3.06640625 6.75 5.5625 C7.17796875 6.38878906 7.6059375 7.21507812 8.046875 8.06640625 C8.36140625 8.70449219 8.6759375 9.34257812 9 10 C9.66 10 10.32 10 11 10 C11.99 8.02 12.98 6.04 14 4 C14.93065133 6.60582371 15.14917407 7.64198224 14.0625 10.25 C13.711875 10.8275 13.36125 11.405 13 12 C11.02 12 9.04 12 7 12 C5.6264955 15.03504133 5.6264955 15.03504133 7.25 18.0625 C8.83338922 21.20014417 8.83338922 21.20014417 12 23 C10.68 23 9.36 23 8 23 C7.67386719 22.37351563 7.34773438 21.74703125 7.01171875 21.1015625 C6.57472656 20.28429687 6.13773437 19.46703125 5.6875 18.625 C5.25824219 17.81289062 4.82898438 17.00078125 4.38671875 16.1640625 C3.03221276 13.73165957 3.03221276 13.73165957 0 12 C1.32 11.34 2.64 10.68 4 10 C3.67 7.36 3.34 4.72 3 2 C1.68 2.33 0.36 2.66 -1 3 C-0.67 2.01 -0.34 1.02 0 0 Z " fill="#2B9B9F" transform="translate(118,221)"/>
<path d="M0 0 C1.32 0.33 2.64 0.66 4 1 C4 1.99 4 2.98 4 4 C4.66 4 5.32 4 6 4 C5 7 5 7 2.83984375 8.16796875 C-3.18013254 9.93173072 -11.08046774 10.39344212 -16.8125 7.5 C-17.534375 7.005 -18.25625 6.51 -19 6 C-15.79937313 4.39968656 -13.27728194 5.96826309 -10 7 C-9.67 6.01 -9.34 5.02 -9 4 C-8.67 4.66 -8.34 5.32 -8 6 C-6.35 5.67 -4.7 5.34 -3 5 C-3 5.66 -3 6.32 -3 7 C-1.35 7 0.3 7 2 7 C1.484375 6.5875 0.96875 6.175 0.4375 5.75 C-0.036875 5.1725 -0.51125 4.595 -1 4 C-0.6875 1.8125 -0.6875 1.8125 0 0 Z " fill="#289FA5" transform="translate(476,294)"/>
<path d="M0 0 C0.66 0 1.32 0 2 0 C2 0.99 2 1.98 2 3 C2.66 3 3.32 3 4 3 C3.67 4.65 3.34 6.3 3 8 C4.32 8 5.64 8 7 8 C6.67 9.32 6.34 10.64 6 12 C6.99 12.66 7.98 13.32 9 14 C8.01 14.33 7.02 14.66 6 15 C5.34 13.68 4.68 12.36 4 11 C2.02 11.33 0.04 11.66 -2 12 C-3.01911045 8.10885099 -3.16782969 6.39403493 -1.5625 2.625 C-1.046875 1.75875 -0.53125 0.8925 0 0 Z " fill="#1CA4AB" transform="translate(94,206)"/>
<path d="M0 0 C0.66 0 1.32 0 2 0 C2 0.66 2 1.32 2 2 C3.11375 2.185625 3.11375 2.185625 4.25 2.375 C7 3 7 3 8.8828125 4.01171875 C11.88149695 5.41147367 14.70857597 5.39030873 17.9765625 5.55859375 C20 6 20 6 22 9 C21 10 21 10 18.93359375 10.09765625 C18.10988281 10.08605469 17.28617188 10.07445312 16.4375 10.0625 C15.19806641 10.04896484 15.19806641 10.04896484 13.93359375 10.03515625 C13.29550781 10.02355469 12.65742187 10.01195312 12 10 C11.67 9.01 11.34 8.02 11 7 C9.7625 6.9175 8.525 6.835 7.25 6.75 C4.01117036 6.36524541 3.12092117 6.09975997 0.5 3.9375 C0.005 3.298125 -0.49 2.65875 -1 2 C-0.67 1.34 -0.34 0.68 0 0 Z " fill="#1AA4AB" transform="translate(84,327)"/>
<path d="M0 0 C2.49361571 1.20381448 4.68143083 2.45428722 7 4 C7.73046875 6.609375 7.73046875 6.609375 8.1875 9.75 C8.34605469 10.77609375 8.50460938 11.8021875 8.66796875 12.859375 C8.99792435 15.98036678 9.27278112 18.86972481 9 22 C8.01 22.66 7.02 23.32 6 24 C5.85304687 22.74896484 5.85304687 22.74896484 5.703125 21.47265625 C4.84776669 15.03534762 3.75690913 9.51450373 0.8046875 3.70703125 C0 2 0 2 0 0 Z " fill="#1CA3AB" transform="translate(183,172)"/>
<path d="M0 0 C1.953125 0.13020833 3.90625 0.26041667 5.859375 0.390625 C6.189375 1.050625 6.519375 1.710625 6.859375 2.390625 C8.81816368 2.78370847 8.81816368 2.78370847 11.109375 2.890625 C14.69804383 3.20542051 17.58108099 3.80435371 20.859375 5.390625 C20.199375 6.050625 19.539375 6.710625 18.859375 7.390625 C16.6953125 7.3671875 16.6953125 7.3671875 14.234375 7.015625 C13.41710937 6.90476563 12.59984375 6.79390625 11.7578125 6.6796875 C10.81808594 6.53660156 10.81808594 6.53660156 9.859375 6.390625 C9.859375 6.060625 9.859375 5.730625 9.859375 5.390625 C4.579375 5.060625 -0.700625 4.730625 -6.140625 4.390625 C-2.140625 0.390625 -2.140625 0.390625 0 0 Z " fill="#1BA4AB" transform="translate(68.140625,152.609375)"/>
<path d="M0 0 C0 1.32 0 2.64 0 4 C-4.35332736 4.84023188 -8.44442519 5.10770995 -12.875 5.0625 C-14.02742188 5.05347656 -15.17984375 5.04445312 -16.3671875 5.03515625 C-17.23601562 5.02355469 -18.10484375 5.01195312 -19 5 C-19 3.68 -19 2.36 -19 1 C-16.39590255 0.83218705 -13.7917318 0.66570349 -11.1875 0.5 C-10.08051758 0.42845703 -10.08051758 0.42845703 -8.95117188 0.35546875 C-5.96175412 0.16609387 -2.99625426 0 0 0 Z " fill="#1AA3AD" transform="translate(88,222)"/>
<path d="M0 0 C0.94552734 0.16242188 0.94552734 0.16242188 1.91015625 0.328125 C3.91015625 3.328125 3.91015625 3.328125 3.91015625 6.328125 C3.58015625 6.988125 3.25015625 7.648125 2.91015625 8.328125 C-0.05984375 8.328125 -3.02984375 8.328125 -6.08984375 8.328125 C-6.47047596 6.0020393 -6.8025432 3.66757236 -7.08984375 1.328125 C-5.19856033 -0.56315842 -2.51916649 0.0914398 0 0 Z " fill="#1EA5AC" transform="translate(371.08984375,308.671875)"/>
<path d="M0 0 C1.64574566 -0.02688151 3.29161413 -0.04634123 4.9375 -0.0625 C5.85402344 -0.07410156 6.77054688 -0.08570313 7.71484375 -0.09765625 C10 0 10 0 11 1 C11.08871273 4.02977804 11.1151935 7.03667022 11.09765625 10.06640625 C11.0962413 10.97502914 11.09482635 11.88365204 11.09336853 12.81980896 C11.08775193 15.73407221 11.07519665 18.64825981 11.0625 21.5625 C11.05748714 23.53320202 11.05292386 25.50390524 11.04882812 27.47460938 C11.03777711 32.31643559 11.02050138 37.15820495 11 42 C8.36 42 5.72 42 3 42 C3 41.67 3 41.34 3 41 C5.97 40.505 5.97 40.505 9 40 C9.02475064 35.23112363 9.04288403 30.46228479 9.05493164 25.69335938 C9.05995505 24.07160796 9.06677494 22.44986105 9.07543945 20.828125 C9.08759229 18.49478031 9.09324828 16.1614956 9.09765625 13.828125 C9.10281754 13.10506165 9.10797882 12.38199829 9.11329651 11.63702393 C9.11366918 8.2798725 9.04907619 5.20893892 8 2 C5.36 2 2.72 2 0 2 C0 1.34 0 0.68 0 0 Z " fill="#2B9397" transform="translate(219,260)"/>
<path d="M0 0 C3.96 0 7.92 0 12 0 C11.25 7.75 11.25 7.75 9 10 C9.33 7.69 9.66 5.38 10 3 C6.7 3 3.4 3 0 3 C-0.26352314 7.73647686 -0.26352314 7.73647686 1 11 C-1.97 10.67 -4.94 10.34 -8 10 C-7.236875 9.46375 -6.47375 8.9275 -5.6875 8.375 C-2.77135526 5.79794186 -1.5294378 3.54185596 0 0 Z " fill="#35959E" transform="translate(175,283)"/>
<path d="M0 0 C2.88437779 1.29299694 4.87219421 2.65941363 7 5 C7.66 4.01 8.32 3.02 9 2 C12.7952131 3.49097658 14.61042731 5.75700849 17 9 C14.525 8.01 14.525 8.01 12 7 C12.54226981 10.79588866 14.20127563 12.47211993 17 15 C16.67 15.66 16.34 16.32 16 17 C13.32932797 14.3581833 10.66414667 11.7108958 8 9.0625 C7.236875 8.30775391 6.47375 7.55300781 5.6875 6.77539062 C4.965625 6.05673828 4.24375 5.33808594 3.5 4.59765625 C2.8296875 3.93258057 2.159375 3.26750488 1.46875 2.58227539 C0 1 0 1 0 0 Z " fill="#2F9A9E" transform="translate(63,311)"/>
<path d="M0 0 C1.485 0.99 1.485 0.99 3 2 C4.88154883 2.44111565 6.78062638 2.8109267 8.6875 3.125 C9.68136719 3.29257812 10.67523438 3.46015625 11.69921875 3.6328125 C12.45847656 3.75398438 13.21773437 3.87515625 14 4 C13.34 5.32 12.68 6.64 12 8 C4.73846154 8.49230769 4.73846154 8.49230769 1 6 C0.34 5.34 -0.32 4.68 -1 4 C-0.67 2.68 -0.34 1.36 0 0 Z " fill="#1BA3AC" transform="translate(40,303)"/>
<path d="M0 0 C1.98 0 3.96 0 6 0 C4.63436578 5.21423975 2.70951382 8.20216442 -1 12 C-3.3125 12.875 -3.3125 12.875 -5 13 C-4.34 12.01 -3.68 11.02 -3 10 C-2.34 10 -1.68 10 -1 10 C-1.20625 9.278125 -1.4125 8.55625 -1.625 7.8125 C-2.05952211 4.55358415 -1.41680669 2.91695496 0 0 Z " fill="#27A0A5" transform="translate(300,288)"/>
<path d="M0 0 C1.32 0.33 2.64 0.66 4 1 C4 2.98 4 4.96 4 7 C5.32 7 6.64 7 8 7 C8 7.99 8 8.98 8 10 C4.7 10 1.4 10 -2 10 C-1.34 6.7 -0.68 3.4 0 0 Z " fill="#18A4AC" transform="translate(178,253)"/>
<path d="M0 0 C2 3 2 3 3 14 C-6.9 14 -16.8 14 -27 14 C-27 13.67 -27 13.34 -27 13 C-17.76 12.67 -8.52 12.34 1 12 C0.67 8.04 0.34 4.08 0 0 Z " fill="#3BA0A5" transform="translate(304,270)"/>
<path d="M0 0 C2.52666638 3.12825361 4.23712665 6.39524498 6 10 C8.56364483 10.10845031 11.12266279 10.18749744 13.6875 10.25 C14.40873047 10.28351563 15.12996094 10.31703125 15.87304688 10.3515625 C19.88194518 10.42478439 21.57169678 10.28590487 25.01953125 7.984375 C25.67308594 7.32953125 26.32664063 6.6746875 27 6 C25.84826645 8.46800047 24.95216435 10.04783565 23 12 C21.16821289 12.25878906 21.16821289 12.25878906 18.97265625 12.265625 C18.18052734 12.26820313 17.38839844 12.27078125 16.57226562 12.2734375 C15.74404297 12.26570312 14.91582031 12.25796875 14.0625 12.25 C13.23814453 12.25773438 12.41378906 12.26546875 11.56445312 12.2734375 C10.77103516 12.27085937 9.97761719 12.26828125 9.16015625 12.265625 C8.43449463 12.26336914 7.70883301 12.26111328 6.96118164 12.25878906 C5 12 5 12 2 10 C0.23267878 6.55837447 -0.21977786 3.8461125 0 0 Z " fill="#2B999F" transform="translate(149,211)"/>
<path d="M0 0 C1.32 0.33 2.64 0.66 4 1 C3.67 1.99 3.34 2.98 3 4 C2.195625 4.28875 1.39125 4.5775 0.5625 4.875 C-2.23928441 5.77944219 -2.23928441 5.77944219 -3.3125 8.625 C-3.539375 9.40875 -3.76625 10.1925 -4 11 C-5.32 11 -6.64 11 -8 11 C-7.25 5.25 -7.25 5.25 -5 3 C-3.68 3 -2.36 3 -1 3 C-0.67 2.01 -0.34 1.02 0 0 Z " fill="#19A4AD" transform="translate(44,275)"/>
<path d="M0 0 C3.96 0 7.92 0 12 0 C12.66 1.98 13.32 3.96 14 6 C13.34 6 12.68 6 12 6 C11.67 4.68 11.34 3.36 11 2 C8.03 2 5.06 2 2 2 C2 2.99 2 3.98 2 5 C2.66 5 3.32 5 4 5 C4.33 6.98 4.66 8.96 5 11 C4.34 11 3.68 11 3 11 C2.49384702 9.73160474 1.99530901 8.46016898 1.5 7.1875 C1.2215625 6.47980469 0.943125 5.77210938 0.65625 5.04296875 C0 3 0 3 0 0 Z " fill="#319A9D" transform="translate(311,283)"/>
<path d="M0 0 C1.37478516 0.01740234 1.37478516 0.01740234 2.77734375 0.03515625 C3.69644531 0.04417969 4.61554688 0.05320312 5.5625 0.0625 C6.27277344 0.07410156 6.98304688 0.08570313 7.71484375 0.09765625 C7.38484375 0.75765625 7.05484375 1.41765625 6.71484375 2.09765625 C4.07484375 2.09765625 1.43484375 2.09765625 -1.28515625 2.09765625 C-1.28515625 8.03765625 -1.28515625 13.97765625 -1.28515625 20.09765625 C-1.61515625 20.09765625 -1.94515625 20.09765625 -2.28515625 20.09765625 C-3.43059697 13.79773227 -3.62810291 7.49260275 -3.28515625 1.09765625 C-2.28515625 0.09765625 -2.28515625 0.09765625 0 0 Z " fill="#2C99A1" transform="translate(408.28515625,259.90234375)"/>
<path d="M0 0 C-0.25561323 2.3431213 -0.59270772 4.67843403 -1 7 C-3.95664519 8.4783226 -6.74229737 8.06032783 -10 8 C-9.67 7.01 -9.34 6.02 -9 5 C-8.34 5 -7.68 5 -7 5 C-7 4.34 -7 3.68 -7 3 C-2.61538462 0 -2.61538462 0 0 0 Z " fill="#1FA2AA" transform="translate(119,326)"/>
<path d="M0 0 C3.3 0 6.6 0 10 0 C11 2 11 2 10.56274414 3.78759766 C10.30614014 4.48933105 10.04953613 5.19106445 9.78515625 5.9140625 C9.51123047 6.67460937 9.23730469 7.43515625 8.95507812 8.21875 C8.66052734 9.0128125 8.36597656 9.806875 8.0625 10.625 C7.77181641 11.42679687 7.48113281 12.22859375 7.18164062 13.0546875 C6.46117475 15.03892138 5.73144862 17.01978837 5 19 C3.64984141 14.94952424 4.37915002 12.2079832 5 8 C5.66 8 6.32 8 7 8 C7 6.68 7 5.36 7 4 C7.66 4 8.32 4 9 4 C9 3.01 9 2.02 9 1 C6.03 1 3.06 1 0 1 C0 0.67 0 0.34 0 0 Z " fill="#31999D" transform="translate(390,260)"/>
<path d="M0 0 C8.5412064 -0.61619926 16.08817274 0.63972109 24 4 C25.875 5.63671875 25.875 5.63671875 27 7 C26.26394531 6.7834375 25.52789062 6.566875 24.76953125 6.34375 C23.79371094 6.0653125 22.81789063 5.786875 21.8125 5.5 C20.84957031 5.2215625 19.88664062 4.943125 18.89453125 4.65625 C16.14654124 4.03322392 13.80401584 3.87697188 11 4 C10.67 3.01 10.34 2.02 10 1 C6.7 1 3.4 1 0 1 C0 0.67 0 0.34 0 0 Z " fill="#2F9B9F" transform="translate(64,152)"/>
<path d="M0 0 C0 0.33 0 0.66 0 1 C-1.65 1 -3.3 1 -5 1 C-5.33 2.32 -5.66 3.64 -6 5 C-7.65 5.33 -9.3 5.66 -11 6 C-11.66 7.98 -12.32 9.96 -13 12 C-13.99 12 -14.98 12 -16 12 C-15.51236826 7.77385827 -13.0517022 4.78701375 -10 2 C-6.51658297 -0.12366214 -4.03918826 -1.34639609 0 0 Z " fill="#2E9DA1" transform="translate(49,274)"/>
<path d="M0 0 C5.89155605 0.99501835 10.34423142 2.15899092 15 6 C15.33 6.99 15.66 7.98 16 9 C14.68 8.67 13.36 8.34 12 8 C12 7.01 12 6.02 12 5 C11.01 5 10.02 5 9 5 C9 5.66 9 6.32 9 7 C8.34 7 7.68 7 7 7 C7 5.68 7 4.36 7 3 C6.34 3 5.68 3 5 3 C4.67 3.99 4.34 4.98 4 6 C3.71125 5.38125 3.4225 4.7625 3.125 4.125 C2.06279958 1.86674235 2.06279958 1.86674235 0 0 Z " fill="#289CA2" transform="translate(339,269)"/>
<path d="M0 0 C0.66 0 1.32 0 2 0 C2.433125 0.969375 2.86625 1.93875 3.3125 2.9375 C4.7014861 6.27731765 4.7014861 6.27731765 8 7 C9.47965926 7.14573058 10.96403843 7.24663268 12.44921875 7.31640625 C13.29677734 7.35830078 14.14433594 7.40019531 15.01757812 7.44335938 C15.89865234 7.48267578 16.77972656 7.52199219 17.6875 7.5625 C19.02651367 7.62727539 19.02651367 7.62727539 20.39257812 7.69335938 C22.59490108 7.79935353 24.79733473 7.90142051 27 8 C27 8.33 27 8.66 27 9 C19.41 9 11.82 9 4 9 C0 2 0 2 0 0 Z " fill="#369EA4" transform="translate(147,219)"/>
<path d="M0 0 C0.66 0.33 1.32 0.66 2 1 C1.67 1.66 1.34 2.32 1 3 C0.34 3 -0.32 3 -1 3 C-1 3.66 -1 4.32 -1 5 C-1.639375 5.268125 -2.27875 5.53625 -2.9375 5.8125 C-5.33131686 6.88667752 -5.33131686 6.88667752 -6 10 C-7.32 9.67 -8.64 9.34 -10 9 C-10 8.01 -10 7.02 -10 6 C-7.46815512 3.64276511 -6.52809907 3 -3 3 C-3 2.34 -3 1.68 -3 1 C-2.01 0.67 -1.02 0.34 0 0 Z " fill="#1AA4AC" transform="translate(49,160)"/>
<path d="M0 0 C5.03985731 0.44469329 7.37634988 2.71343362 11 6 C9.25 7.125 9.25 7.125 7 8 C4.30066074 7.07451225 3.28813232 6.57626463 2 4 C1.01 4 0.02 4 -1 4 C-0.67 2.68 -0.34 1.36 0 0 Z " fill="#1EA4AE" transform="translate(97,167)"/>
<path d="M0 0 C0.33 0 0.66 0 1 0 C1.33 10.23 1.66 20.46 2 31 C0.68 30.67 -0.64 30.34 -2 30 C-1.34 29.67 -0.68 29.34 0 29 C0 19.43 0 9.86 0 0 Z " fill="#319AA2" transform="translate(203,261)"/>
<path d="M0 0 C0.58523438 0.21914063 1.17046875 0.43828125 1.7734375 0.6640625 C-0.2265625 3.6640625 -0.2265625 3.6640625 -3.6015625 5.1015625 C-7.05724652 6.59108147 -8.80753234 7.85798752 -11.2265625 10.6640625 C-10.01182628 6.07505901 -7.49631254 3.75991827 -4.078125 0.703125 C-2.2265625 -0.3359375 -2.2265625 -0.3359375 0 0 Z " fill="#2B9BA1" transform="translate(278.2265625,261.3359375)"/>
<path d="M0 0 C1.60568666 0.28317926 3.20952047 0.57687791 4.8125 0.875 C6.15248047 1.11863281 6.15248047 1.11863281 7.51953125 1.3671875 C10 2 10 2 13 4 C12 5 12 5 8.5625 5.1875 C5 5 5 5 3 3 C0.93125966 2.3574765 0.93125966 2.3574765 -1 2 C-0.67 1.34 -0.34 0.68 0 0 Z " fill="#1BA3AC" transform="translate(158,154)"/>
<path d="M0 0 C0.99 0.33 1.98 0.66 3 1 C3 1.66 3 2.32 3 3 C5.97 3 8.94 3 12 3 C12.33 2.01 12.66 1.02 13 0 C13.33 1.65 13.66 3.3 14 5 C10.29212965 5.28328381 6.69681924 5.46346554 3 5 C0.8125 2.5 0.8125 2.5 0 0 Z " fill="#39989B" transform="translate(475,270)"/>
<path d="M0 0 C0.66 0.33 1.32 0.66 2 1 C-0.21928194 3.90802461 -1.92969143 5.95312762 -5 8 C-5.99 7.67 -6.98 7.34 -8 7 C-7.34 7 -6.68 7 -6 7 C-6.20625 6.38125 -6.4125 5.7625 -6.625 5.125 C-6.74875 4.42375 -6.8725 3.7225 -7 3 C-6.34 2.34 -5.68 1.68 -5 1 C-3.68 1.66 -2.36 2.32 -1 3 C-0.67 2.01 -0.34 1.02 0 0 Z " fill="#2C9CA1" transform="translate(182,293)"/>
<path d="M0 0 C0.66 0 1.32 0 2 0 C1.98839844 1.16917969 1.97679687 2.33835937 1.96484375 3.54296875 C1.95546087 5.09114423 1.9463612 6.63932145 1.9375 8.1875 C1.92912109 8.95642578 1.92074219 9.72535156 1.91210938 10.51757812 C1.89508066 14.48526789 2.01395885 18.12571234 3 22 C2.01 21.67 1.02 21.34 0 21 C0 14.07 0 7.14 0 0 Z " fill="#329A9D" transform="translate(147,264)"/>
<path d="M0 0 C0.66 0.66 1.32 1.32 2 2 C1.625 5.625 1.625 5.625 1 9 C-0.32 9.33 -1.64 9.66 -3 10 C-3.33 9.34 -3.66 8.68 -4 8 C-3.22265625 6.0546875 -3.22265625 6.0546875 -2.0625 3.875 C-1.49208984 2.78832031 -1.49208984 2.78832031 -0.91015625 1.6796875 C-0.60980469 1.12539062 -0.30945313 0.57109375 0 0 Z " fill="#1DA2AA" transform="translate(139,215)"/>
<path d="M0 0 C0.33 0.66 0.66 1.32 1 2 C3.02463255 2.65213292 3.02463255 2.65213292 5 3 C5.33 4.65 5.66 6.3 6 8 C3.64035727 7.59316505 2.14065912 7.10185661 0.1875 5.6875 C-1 4 -1 4 -0.6875 1.8125 C-0.460625 1.214375 -0.23375 0.61625 0 0 Z " fill="#1DA3AB" transform="translate(75,317)"/>
<path d="M0 0 C5.445 1.485 5.445 1.485 11 3 C9.68 3.33 8.36 3.66 7 4 C7 4.66 7 5.32 7 6 C6.01 6.33 5.02 6.66 4 7 C4 6.34 4 5.68 4 5 C3.01 4.67 2.02 4.34 1 4 C0.67 2.68 0.34 1.36 0 0 Z " fill="#269EA2" transform="translate(327,265)"/>
<path d="M0 0 C1.17946184 3.68581825 1 7.15670201 1 11 C1.309375 12.6396875 1.309375 12.6396875 1.625 14.3125 C1.810625 15.6428125 1.810625 15.6428125 2 17 C1.34 17.66 0.68 18.32 0 19 C-1.47899501 16.04200997 -1.13178874 13.3516424 -1.125 10.0625 C-1.12757813 8.81597656 -1.13015625 7.56945312 -1.1328125 6.28515625 C-1 3 -1 3 0 0 Z " fill="#339DA0" transform="translate(266,272)"/>
<path d="M0 0 C0.33 0.66 0.66 1.32 1 2 C0.00390625 4.1640625 0.00390625 4.1640625 -1.4375 6.625 C-1.91058594 7.44226563 -2.38367188 8.25953125 -2.87109375 9.1015625 C-3.24363281 9.72804687 -3.61617188 10.35453125 -4 11 C-5.32 10.67 -6.64 10.34 -8 10 C-8 9.34 -8 8.68 -8 8 C-6.68 8.33 -5.36 8.66 -4 9 C-4.0825 8.071875 -4.165 7.14375 -4.25 6.1875 C-4 3 -4 3 -2 1.125 C-1.34 0.75375 -0.68 0.3825 0 0 Z " fill="#2E98A0" transform="translate(117,234)"/>
<path d="M0 0 C2.31 0.33 4.62 0.66 7 1 C7.33 2.65 7.66 4.3 8 6 C2.33846154 4.52307692 2.33846154 4.52307692 0.625 1.875 C0.41875 1.25625 0.2125 0.6375 0 0 Z " fill="#1CA2A8" transform="translate(89,161)"/>
<path d="M0 0 C0 2.64 0 5.28 0 8 C-0.2475 7.401875 -0.495 6.80375 -0.75 6.1875 C-2.18675912 3.67317153 -3.60736148 2.59509235 -6 1 C-6.99 0.34 -7.98 -0.32 -9 -1 C-5.38055101 -2.34053666 -3.42632833 -1.61798838 0 0 Z " fill="#2E9DA0" transform="translate(347,280)"/>
<path d="M0 0 C1.69141656 0.08963062 3.37959602 0.24577676 5.0625 0.4375 C6.44115234 0.59025391 6.44115234 0.59025391 7.84765625 0.74609375 C8.55792969 0.82988281 9.26820313 0.91367187 10 1 C10 1.33 10 1.66 10 2 C9.07767578 2.27263672 9.07767578 2.27263672 8.13671875 2.55078125 C7.32847656 2.80214844 6.52023437 3.05351562 5.6875 3.3125 C4.48673828 3.67794922 4.48673828 3.67794922 3.26171875 4.05078125 C0.90035427 5.04182023 -0.33879993 6.08074943 -2 8 C-1.125 1.125 -1.125 1.125 0 0 Z " fill="#2F9C9F" transform="translate(251,268)"/>
<path d="M0 0 C0 0.66 0 1.32 0 2 C-0.66 2 -1.32 2 -2 2 C-1.67 3.32 -1.34 4.64 -1 6 C-7 6 -7 6 -9 5 C-2.87096774 0 -2.87096774 0 0 0 Z " fill="#299A9F" transform="translate(462,261)"/>
<path d="M0 0 C1.32 0 2.64 0 4 0 C4.33 2.31 4.66 4.62 5 7 C4.01 7 3.02 7 2 7 C0 4 0 4 0 0 Z " fill="#18A5AB" transform="translate(103,226)"/>
<path d="M0 0 C1.9375 0.125 1.9375 0.125 4 1 C5.25 3.5625 5.25 3.5625 6 6 C5.01 6.33 4.02 6.66 3 7 C2.71125 6.195625 2.4225 5.39125 2.125 4.5625 C1.26737432 1.8673532 1.26737432 1.8673532 -1 1 C-0.67 0.67 -0.34 0.34 0 0 Z " fill="#1AA4AC" transform="translate(39,213)"/>
<path d="M0 0 C2.97 0.495 2.97 0.495 6 1 C2.57653445 4.14958831 -0.44262737 4.56179109 -5 5 C-4.67 4.01 -4.34 3.02 -4 2 C-2.68 2 -1.36 2 0 2 C0 1.34 0 0.68 0 0 Z " fill="#239FA1" transform="translate(345,298)"/>
<path d="M0 0 C0.99 0.33 1.98 0.66 3 1 C3.33 2.65 3.66 4.3 4 6 C2.02 6.33 0.04 6.66 -2 7 C-1.67 6.21625 -1.34 5.4325 -1 4.625 C0.11866511 2.15667503 0.11866511 2.15667503 0 0 Z " fill="#23A0A7" transform="translate(170,296)"/>
<path d="M0 0 C1.65 0.33 3.3 0.66 5 1 C4.67 2.32 4.34 3.64 4 5 C1.36 5 -1.28 5 -4 5 C-4 4.01 -4 3.02 -4 2 C-1.03 2.495 -1.03 2.495 2 3 C1.34 2.01 0.68 1.02 0 0 Z " fill="#16A7AD" transform="translate(483,268)"/>
<path d="M0 0 C0.33 0 0.66 0 1 0 C1 2.64 1 5.28 1 8 C-0.98 8.99 -0.98 8.99 -3 10 C-2.49287967 6.28111761 -1.88391785 3.26545761 0 0 Z " fill="#2A9D9F" transform="translate(140,256)"/>
<path d="M0 0 C0.66 0 1.32 0 2 0 C1.67 2.64 1.34 5.28 1 8 C0.01 8 -0.98 8 -2 8 C-3 5 -3 5 -1.6875 2.3125 C-1.130625 1.549375 -0.57375 0.78625 0 0 Z " fill="#1CA4AF" transform="translate(122,319)"/>
<path d="M0 0 C4 0 4 0 5.75 1.5 C6.1625 1.995 6.575 2.49 7 3 C6.34 4.32 5.68 5.64 5 7 C3.29115995 5.37660195 1.62553283 3.70680947 0 2 C0 1.34 0 0.68 0 0 Z " fill="#1EA4AC" transform="translate(65,310)"/>
<path d="M0 0 C0.66 0 1.32 0 2 0 C1.25749403 4.08378283 0.17076699 8.01939223 -1 12 C-1.33 12 -1.66 12 -2 12 C-2.05395478 10.37536158 -2.09277195 8.75021459 -2.125 7.125 C-2.14820313 6.22007812 -2.17140625 5.31515625 -2.1953125 4.3828125 C-2 2 -2 2 0 0 Z " fill="#2CA1A5" transform="translate(450,274)"/>
<path d="M0 0 C0.66 0.99 1.32 1.98 2 3 C1.071875 4.1446875 1.071875 4.1446875 0.125 5.3125 C-2.05597052 7.99625809 -2.05597052 7.99625809 -4 11 C-3.91291331 9.54054712 -3.80473093 8.08234132 -3.6875 6.625 C-3.62949219 5.81289063 -3.57148438 5.00078125 -3.51171875 4.1640625 C-3 2 -3 2 0 0 Z " fill="#2B9CA0" transform="translate(463,267)"/>
<path d="M0 0 C0.99 0 1.98 0 3 0 C1.84414715 3.91211733 0.64465038 6.8745041 -2 10 C-1.85950482 8.52031676 -1.71245174 7.04125484 -1.5625 5.5625 C-1.48128906 4.73878906 -1.40007812 3.91507813 -1.31640625 3.06640625 C-1 1 -1 1 0 0 Z " fill="#289AA1" transform="translate(132,233)"/>
<path d="M0 0 C1.65 0 3.3 0 5 0 C5.66 1.98 6.32 3.96 7 6 C5.0625 5.6875 5.0625 5.6875 3 5 C2.67 4.01 2.34 3.02 2 2 C1.01 2 0.02 2 -1 2 C-0.67 1.34 -0.34 0.68 0 0 Z " fill="#2F979B" transform="translate(142,205)"/>
<path d="M0 0 C2.64 0 5.28 0 8 0 C8 0.99 8 1.98 8 3 C6.25 3.75 6.25 3.75 4 4 C1.75 2.0625 1.75 2.0625 0 0 Z " fill="#1DA8B2" transform="translate(360,262)"/>
<path d="M0 0 C1.65 1.65 3.3 3.3 5 5 C3.68 5 2.36 5 1 5 C0.34 5.99 -0.32 6.98 -1 8 C-1.33 6.68 -1.66 5.36 -2 4 C-1.34 4 -0.68 4 0 4 C0 2.68 0 1.36 0 0 Z " fill="#2D9FA4" transform="translate(81,251)"/>
<path d="M0 0 C2 3 2 3 1.75 5.625 C1.5025 6.40875 1.255 7.1925 1 8 C0.01 8.495 0.01 8.495 -1 9 C-1.80967438 6.08517222 -2.21845993 4.53886783 -1.0625 1.6875 C-0.711875 1.130625 -0.36125 0.57375 0 0 Z " fill="#239EA4" transform="translate(116,224)"/>
<path d="M0 0 C0.66 0 1.32 0 2 0 C1 2 0 4 -1 6 C-3.5625 6.625 -3.5625 6.625 -6 7 C-5.04882866 5.8274869 -4.08882991 4.66212985 -3.125 3.5 C-2.59132813 2.8503125 -2.05765625 2.200625 -1.5078125 1.53125 C-0.76144531 0.77328125 -0.76144531 0.77328125 0 0 Z " fill="#309DA7" transform="translate(125,163)"/>
<path d="M0 0 C2.96175123 0.61277612 4.38058783 1.25372522 7 3 C7 3.66 7 4.32 7 5 C5.35 5 3.7 5 2 5 C1.34 3.35 0.68 1.7 0 0 Z " fill="#1DA4B0" transform="translate(176,164)"/>
<path d="M0 0 C0.33 0 0.66 0 1 0 C1 1.98 1 3.96 1 6 C-2.3 5.67 -5.6 5.34 -9 5 C-9 4.67 -9 4.34 -9 4 C-7.88625 3.896875 -6.7725 3.79375 -5.625 3.6875 C-4.42875 3.460625 -3.2325 3.23375 -2 3 C-1.34 2.01 -0.68 1.02 0 0 Z " fill="#2C9A9E" transform="translate(374,304)"/>
<path d="M0 0 C1.77706209 2.66559313 2.87548273 5.0280615 4 8 C3.01 8.495 3.01 8.495 2 9 C0 7 0 7 -0.125 3.375 C-0.08375 2.26125 -0.0425 1.1475 0 0 Z " fill="#269DA3" transform="translate(459,285)"/>
<path d="M0 0 C1.9375 0.625 1.9375 0.625 4 2 C4.75 5.125 4.75 5.125 5 8 C2.20127563 5.47211993 0.54226981 3.79588866 0 0 Z " fill="#309B9B" transform="translate(450,290)"/>
<path d="M0 0 C4 0 4 0 5.75 1.375 C7 3 7 3 7 5 C5.68 5 4.36 5 3 5 C1.25 2.5 1.25 2.5 0 0 Z " fill="#18A4B1" transform="translate(106,177)"/>
<path d="M0 0 C2.37948772 0.17625835 3.70225849 0.69719773 5.37890625 2.40234375 C6.62115486 3.90649092 7.81376056 5.45129851 9 7 C4.58110387 5.64978174 2.65654657 3.73884332 0 0 Z " fill="#339B9A" transform="translate(35,304)"/>
<path d="M0 0 C0.99 0.66 1.98 1.32 3 2 C3 2.66 3 3.32 3 4 C0.03 3.67 -2.94 3.34 -6 3 C-6 2.67 -6 2.34 -6 2 C-3.1875 0.875 -3.1875 0.875 0 0 Z " fill="#23A0A5" transform="translate(173,290)"/>
<path d="M0 0 C2 3 2 3 2 6 C0.02 6 -1.96 6 -4 6 C-4 5.34 -4 4.68 -4 4 C-2.68 4 -1.36 4 0 4 C0 2.68 0 1.36 0 0 Z " fill="#38989F" transform="translate(354,257)"/>
<path d="M0 0 C2.475 0.495 2.475 0.495 5 1 C5 2.32 5 3.64 5 5 C3.68 4.67 2.36 4.34 1 4 C0.67 2.68 0.34 1.36 0 0 Z " fill="#1AA3AB" transform="translate(76,250)"/>
<path d="M0 0 C0.99 0.33 1.98 0.66 3 1 C4.1875 4.0625 4.1875 4.0625 5 7 C3.68 7 2.36 7 1 7 C1.33 5.35 1.66 3.7 2 2 C1.34 2 0.68 2 0 2 C0 1.34 0 0.68 0 0 Z " fill="#259EA3" transform="translate(96,207)"/>
<path d="M0 0 C1.32 0.33 2.64 0.66 4 1 C2.87926138 1.83905565 1.75325453 2.67107831 0.625 3.5 C-0.00148437 3.9640625 -0.62796875 4.428125 -1.2734375 4.90625 C-3 6 -3 6 -5 6 C-4.67 5.01 -4.34 4.02 -4 3 C-1.9375 2.3125 -1.9375 2.3125 0 2 C0 1.34 0 0.68 0 0 Z " fill="#359CA2" transform="translate(135,161)"/>
</svg>
